<svg width="14" height="15" viewBox="0 0 14 15" fill="none" xmlns="http://www.w3.org/2000/svg">
<g id="Vector">
<path d="M5 1H1.66667C1.29848 1 1 1.32335 1 1.72222V6.77778C1 7.17665 1.29848 7.5 1.66667 7.5H5C5.36819 7.5 5.66667 7.17665 5.66667 6.77778V1.72222C5.66667 1.32335 5.36819 1 5 1Z" stroke="#131313" stroke-width="1.5" stroke-linecap="round" stroke-linejoin="round"/>
<path d="M12.3333 1H9C8.63181 1 8.33333 1.32335 8.33333 1.72222V3.88889C8.33333 4.28776 8.63181 4.61111 9 4.61111H12.3333C12.7015 4.61111 13 4.28776 13 3.88889V1.72222C13 1.32335 12.7015 1 12.3333 1Z" stroke="#131313" stroke-width="1.5" stroke-linecap="round" stroke-linejoin="round"/>
<path d="M12.3333 7.5H9C8.63181 7.5 8.33333 7.82335 8.33333 8.22222V13.2778C8.33333 13.6767 8.63181 14 9 14H12.3333C12.7015 14 13 13.6767 13 13.2778V8.22222C13 7.82335 12.7015 7.5 12.3333 7.5Z" stroke="#131313" stroke-width="1.5" stroke-linecap="round" stroke-linejoin="round"/>
<path d="M5 10.3889H1.66667C1.29848 10.3889 1 10.7122 1 11.1111V13.2778C1 13.6766 1.29848 14 1.66667 14H5C5.36819 14 5.66667 13.6766 5.66667 13.2778V11.1111C5.66667 10.7122 5.36819 10.3889 5 10.3889Z" stroke="#131313" stroke-width="1.5" stroke-linecap="round" stroke-linejoin="round"/>
</g>
</svg>
